<svg width="33" height="33" viewBox="0 0 33 33" fill="none" xmlns="http://www.w3.org/2000/svg">
<path d="M31.2106 0.48291H1.75153C1.04307 0.48291 0.470703 1.05528 0.470703 1.76374V31.2229C0.470703 31.9313 1.04307 32.5037 1.75153 32.5037H31.2106C31.9191 32.5037 32.4915 31.9313 32.4915 31.2229V1.76374C32.4915 1.05528 31.9191 0.48291 31.2106 0.48291ZM27.5122 9.82897H24.9546C22.9493 9.82897 22.561 10.7816 22.561 12.1825V15.2685H27.3481L26.7237 20.0996H22.561V32.5037H17.5698V20.1036H13.3951V15.2685H17.5698V11.7062C17.5698 7.57151 20.0954 5.31805 23.7858 5.31805C25.555 5.31805 27.072 5.45013 27.5163 5.51017V9.82897H27.5122Z" fill="#FA4A0C"/>
</svg>
