<svg width="33" height="33" viewBox="0 0 33 33" fill="none" xmlns="http://www.w3.org/2000/svg">
<path d="M31.198 0.48291H1.73884C1.03038 0.48291 0.458008 1.05528 0.458008 1.76374V31.2229C0.458008 31.9313 1.03038 32.5037 1.73884 32.5037H31.198C31.9064 32.5037 32.4788 31.9313 32.4788 31.2229V1.76374C32.4788 1.05528 31.9064 0.48291 31.198 0.48291ZM9.95617 27.7686H5.20509V12.4867H9.95617V27.7686ZM7.58263 10.3973C7.03798 10.3973 6.50557 10.2358 6.05271 9.93325C5.59985 9.63066 5.24689 9.20057 5.03846 8.69738C4.83004 8.1942 4.7755 7.6405 4.88176 7.10632C4.98801 6.57214 5.25029 6.08146 5.63541 5.69634C6.02053 5.31121 6.51121 5.04894 7.04539 4.94268C7.57958 4.83643 8.13327 4.89096 8.63646 5.09939C9.13965 5.30782 9.56973 5.66078 9.87232 6.11363C10.1749 6.56649 10.3364 7.09891 10.3364 7.64356C10.3324 9.16454 9.09962 10.3973 7.58263 10.3973ZM27.7437 27.7686H22.9966V20.3358C22.9966 18.5626 22.9646 16.2852 20.527 16.2852C18.0574 16.2852 17.6772 18.2144 17.6772 20.2077V27.7686H12.9341V12.4867H17.4891V14.5761H17.5531C18.1855 13.3753 19.7345 12.1065 22.048 12.1065C26.8591 12.1065 27.7437 15.2725 27.7437 19.3872V27.7686Z" fill="#FA4A0C"/>
</svg>
