<svg width="35" height="29" viewBox="0 0 35 29" fill="none" xmlns="http://www.w3.org/2000/svg">
<path d="M34.145 4.1787C32.9202 4.70704 31.5873 5.08729 30.2144 5.23539C31.6398 4.38858 32.7072 3.05077 33.2164 1.47295C31.8788 2.26862 30.4136 2.82656 28.8855 3.12202C28.2469 2.43928 27.4745 1.89538 26.6165 1.52421C25.7585 1.15304 24.8332 0.962551 23.8983 0.964616C20.1159 0.964616 17.0739 4.03061 17.0739 7.79305C17.0739 8.32139 17.1379 8.84973 17.242 9.35806C11.5783 9.06187 6.52705 6.35611 3.16887 2.21343C2.55697 3.25857 2.23632 4.44858 2.24026 5.65966C2.24026 8.0292 3.44505 10.1186 5.28224 11.3474C4.19955 11.3047 3.14222 11.0071 2.19624 10.4788V10.5628C2.19624 13.881 4.54176 16.6308 7.66779 17.2632C7.08084 17.4157 6.47704 17.4936 5.87062 17.4953C5.42633 17.4953 5.00606 17.4513 4.58178 17.3913C5.44634 20.097 7.96398 22.0623 10.9619 22.1263C8.6164 23.9635 5.67849 25.0442 2.48843 25.0442C1.91605 25.0442 1.38771 25.0242 0.839355 24.9602C3.86532 26.9014 7.45565 28.0222 11.3222 28.0222C23.8743 28.0222 30.7428 17.6234 30.7428 8.59757C30.7428 8.30138 30.7428 8.00518 30.7227 7.70899C32.0516 6.73636 33.2164 5.53158 34.145 4.1787Z" fill="#FA4A0C"/>
</svg>
